<svg xmlns="http://www.w3.org/2000/svg" xmlns:xlink="http://www.w3.org/1999/xlink" width="99" height="99" viewBox="0 0 99 99" fill="none"><path     fill="#CBCBCB"  d="M99 49.5C99 76.8381 76.8381 99 49.5 99C22.1619 99 0 76.8381 0 49.5C0 22.1619 22.1619 0 49.5 0C76.8381 0 99 22.1619 99 49.5Z"></path><g ><path     fill="#000000"  d="M22.5 67.65Q19.6 67.65 17.125 66.2Q14.65 64.75 13.2 62.3Q11.75 59.85 11.75 56.95L11.75 45.35Q11.75 42.45 13.2 39.975Q14.65 37.5 17.125 36.05Q19.6 34.6 22.5 34.6L24.25 34.6Q27.2 34.6 29.65 36.05Q32.1 37.5 33.55 39.95Q35 42.4 35 45.35L35 46.2L30.05 46.2L30.05 45.35Q30.05 42.9 28.375 41.2Q26.7 39.5 24.25 39.5L22.5 39.5Q20.05 39.5 18.35 41.2Q16.65 42.9 16.65 45.35L16.65 56.95Q16.65 59.35 18.35 61.05Q20.05 62.75 22.5 62.75L24.25 62.75Q26.7 62.75 28.375 61.05Q30.05 59.35 30.05 56.95L30.05 56.05L35 56.05L35 56.95Q35 59.85 33.55 62.3Q32.1 64.75 29.65 66.2Q27.2 67.65 24.25 67.65L22.5 67.65ZM40.75 34.6L45.65 34.6L45.65 39.65Q48.05 37.25 51.125 35.925Q54.2 34.6 57.7 34.6L57.7 39.5Q54.45 39.5 51.675 41.125Q48.9 42.75 47.275 45.55Q45.65 48.35 45.65 51.6L45.65 67.65L40.75 67.65L40.75 34.6ZM72.2 50.85L62.55 35.05L68.35 35.05L75.05 46.15L81.8 35.05L87.55 35.05L77.95 50.85L88.45 68.1L82.7 68.1L75.05 55.6L67.45 68.1L61.7 68.1L72.2 50.85Z"></path></g></svg>